<?xml version="1.0" encoding="UTF-8" standalone="no"?><!DOCTYPE svg PUBLIC "-//W3C//DTD SVG 1.1//EN" "http://www.w3.org/Graphics/SVG/1.1/DTD/svg11.dtd"><svg width="100%" height="100%" viewBox="0 0 570 910" version="1.1" xmlns="http://www.w3.org/2000/svg" xmlns:xlink="http://www.w3.org/1999/xlink" xml:space="preserve" xmlns:serif="http://www.serif.com/" style="fill-rule:evenodd;clip-rule:evenodd;stroke-linejoin:round;stroke-miterlimit:2;"><path d="M15.962,550.345c-7.892,-22.009 -11.962,-44.141 -11.164,-72.096c0.058,-2.021 1.071,-3.895 2.731,-5.05c1.66,-1.155 3.77,-1.454 5.675,-0.809c45.953,15.394 55.542,31.723 67.222,52.408c4.715,8.351 9.774,17.46 17.96,27.576c-18.122,-36.182 -33.145,-80.535 -48.997,-116.778c-12.54,-28.67 -25.415,-52.248 -41.122,-61.881c-1.671,-0.998 -2.795,-2.704 -3.05,-4.635l-0.001,-0c-20.233,-153.374 16.765,-282.343 139.66,-367.938l0.001,-0.001c1.778,-1.237 4.064,-1.486 6.071,-0.66l0.003,0.001c102.723,42.516 221.585,141.15 344.633,287.352c-93.714,102.506 -166.697,225.599 -209.991,340.888c-0.083,0.225 0.024,0.475 0.244,0.57c0.221,0.094 0.476,-0 0.582,-0.216c57.94,-116.96 132.496,-236.433 219.856,-328.431c20.676,24.981 41.451,51.281 62.278,78.872l0,-0c1.711,2.266 1.717,5.391 0.015,7.663c-85.66,114.431 -127.425,228.857 -129.386,343.319c-0.028,1.674 -0.713,3.27 -1.908,4.443l-56.801,55.799c-5.856,-8.052 -13.372,-18.392 -18.287,-25.167c-5.171,-7.107 -8.765,-15.237 -10.54,-23.845c-6.035,-29.295 -6.59,-81.609 -6.701,-131.539c-5.515,55.779 -6.934,109.878 -2.643,139.26c0.638,4.358 1.739,8.636 3.287,12.76l17.216,45.887l-101.277,99.487c-1.235,1.214 -2.912,1.873 -4.643,1.826c-1.732,-0.047 -3.37,-0.797 -4.538,-2.077l-0.001,-0.001c-31.315,-34.366 -62.195,-71.56 -92.572,-112.02l-0,-0.001c-0.619,-0.824 -1.028,-1.786 -1.194,-2.803c-13.884,-85.354 -44.585,-152.711 -91.881,-202.372c33.733,18.981 62.371,40.795 101.967,80.708c-48.929,-59.932 -82.841,-81.415 -152.704,-120.499Zm332.864,-233.042l0.021,0.047c-10.065,39.607 -36.626,66.315 -81.657,97.822l-0.019,-0.005c-8.564,6.01 -17.809,12.183 -27.736,18.653l-6.053,135.087c-21.69,-100.676 -27.035,-171.969 -18.032,-222.129l-0.001,-0.089c2.75,-15.305 6.835,-28.639 12.196,-40.236l0.008,-0.012c21.571,-46.648 63.824,-65.218 123.023,-70.976c4.372,33.408 3.915,59.653 -1.75,81.838Zm-63.647,0.831c15.416,-0 27.932,12.728 27.932,28.406c0,15.677 -12.516,28.406 -27.932,28.406c-15.416,-0 -27.932,-12.729 -27.932,-28.406c-0,-15.678 12.516,-28.406 27.932,-28.406Z" style="fill:#fff;"/><circle cx="284.922" cy="345.348" r="40.675" style="fill:#131415;"/><path d="M227.545,306.453c12.584,-18.669 33.712,-30.929 57.634,-30.929c28.312,0 52.711,17.172 63.668,41.826c-10.065,39.607 -36.626,66.315 -81.657,97.822c-29.792,-8.069 -51.775,-35.681 -51.841,-68.483c2.75,-15.305 6.835,-28.639 12.196,-40.236Zm57.634,11.681c15.416,-0 27.932,12.728 27.932,28.406c0,15.677 -12.516,28.406 -27.932,28.406c-15.416,-0 -27.932,-12.729 -27.932,-28.406c-0,-15.678 12.516,-28.406 27.932,-28.406Z" style="fill:#bf8f40;"/></svg>