<?xml version="1.0" encoding="UTF-8" standalone="no"?><!DOCTYPE svg PUBLIC "-//W3C//DTD SVG 1.1//EN" "http://www.w3.org/Graphics/SVG/1.1/DTD/svg11.dtd"><svg width="100%" height="100%" viewBox="0 0 189 189" version="1.1" xmlns="http://www.w3.org/2000/svg" xmlns:xlink="http://www.w3.org/1999/xlink" xml:space="preserve" xmlns:serif="http://www.serif.com/" style="fill-rule:evenodd;clip-rule:evenodd;stroke-linejoin:round;stroke-miterlimit:2;"><path d="M86.522,5.803c0.903,-3.42 3.997,-5.803 7.534,-5.803c3.538,0 6.631,2.383 7.534,5.803l16.857,63.862l63.862,16.857c3.42,0.903 5.803,3.997 5.803,7.534c0,3.538 -2.383,6.631 -5.803,7.534l-63.862,16.857l-16.857,63.862c-0.903,3.42 -3.996,5.803 -7.534,5.803c-3.537,0 -6.631,-2.383 -7.534,-5.803l-16.857,-63.862l-63.862,-16.857c-3.42,-0.903 -5.803,-3.996 -5.803,-7.534c-0,-3.537 2.383,-6.631 5.803,-7.534l63.862,-16.857l16.857,-63.862Zm69.783,158.877c1.049,1.05 2.473,1.64 3.957,1.64c1.484,-0 2.908,-0.59 3.957,-1.64c0.001,-0 0.002,-0.001 0.003,-0.002c1.049,-1.05 1.639,-2.473 1.639,-3.958c0,-1.484 -0.59,-2.907 -1.639,-3.957c-6.185,-6.185 -18.074,-18.074 -24.259,-24.259c-1.049,-1.049 -2.473,-1.639 -3.957,-1.639c-1.484,0 -2.908,0.59 -3.957,1.639c-0.001,0.001 -0.002,0.002 -0.003,0.003c-1.05,1.05 -1.639,2.473 -1.639,3.957c-0,1.485 0.589,2.908 1.639,3.958c6.185,6.185 18.074,18.073 24.259,24.258Zm-132.669,-7.917c-1.05,1.05 -1.64,2.473 -1.64,3.957c0,1.485 0.59,2.908 1.64,3.958c0,0.001 0.001,0.002 0.002,0.002c1.05,1.05 2.473,1.64 3.958,1.64c1.484,-0 2.907,-0.59 3.957,-1.64c6.185,-6.185 18.074,-18.073 24.259,-24.258c1.049,-1.05 1.639,-2.473 1.639,-3.958c-0,-1.484 -0.59,-2.907 -1.639,-3.957c-0.001,-0.001 -0.002,-0.002 -0.003,-0.003c-1.05,-1.049 -2.473,-1.639 -3.957,-1.639c-1.485,0 -2.908,0.59 -3.958,1.639c-6.185,6.185 -18.073,18.074 -24.258,24.259Zm140.586,-124.835c1.049,-1.05 1.639,-2.473 1.639,-3.958c0,-1.484 -0.59,-2.907 -1.639,-3.957c-0.001,-0.001 -0.002,-0.002 -0.003,-0.003c-1.049,-1.049 -2.473,-1.639 -3.957,-1.639c-1.484,0 -2.908,0.59 -3.957,1.639c-6.185,6.185 -18.074,18.074 -24.259,24.259c-1.05,1.05 -1.639,2.473 -1.639,3.958c-0,1.484 0.589,2.907 1.639,3.957c0.001,0.001 0.002,0.002 0.003,0.003c1.049,1.049 2.473,1.639 3.957,1.639c1.484,-0 2.908,-0.59 3.957,-1.639c6.185,-6.186 18.074,-18.074 24.259,-24.259Zm-132.669,-7.918c-1.05,-1.049 -2.473,-1.639 -3.957,-1.639c-1.485,0 -2.908,0.59 -3.958,1.639c-0.001,0.001 -0.002,0.002 -0.002,0.003c-1.05,1.05 -1.64,2.473 -1.64,3.957c0,1.485 0.59,2.908 1.64,3.958c6.185,6.185 18.073,18.073 24.258,24.259c1.05,1.049 2.473,1.639 3.958,1.639c1.484,-0 2.907,-0.59 3.957,-1.639c0.001,-0.001 0.002,-0.002 0.003,-0.003c1.049,-1.05 1.639,-2.473 1.639,-3.957c-0,-1.485 -0.59,-2.908 -1.639,-3.958c-6.185,-6.185 -18.074,-18.074 -24.259,-24.259Z" style="fill:#c8aa6e;"/></svg>