<?xml version="1.0" encoding="UTF-8" standalone="no"?><!DOCTYPE svg PUBLIC "-//W3C//DTD SVG 1.1//EN" "http://www.w3.org/Graphics/SVG/1.1/DTD/svg11.dtd"><svg width="100%" height="100%" viewBox="0 0 440 305" version="1.1" xmlns="http://www.w3.org/2000/svg" xmlns:xlink="http://www.w3.org/1999/xlink" xml:space="preserve" xmlns:serif="http://www.serif.com/" style="fill-rule:evenodd;clip-rule:evenodd;stroke-linejoin:round;stroke-miterlimit:2;"><path d="M325.952,89.208c-0,-0 -35.631,111.905 -38.534,121.143c-1.056,-9.501 -27.185,-210.351 -27.185,-210.351c-60.703,0 -93.166,43.284 -110.322,88.944c0,-0 -43.284,112.169 -46.979,121.671c-0.264,-8.71 -6.598,-120.351 -6.598,-120.351c-3.695,-55.953 -54.897,-90 -96.334,-90l50.146,304.309c63.607,-0.264 97.918,-43.284 115.865,-88.943c-0,-0 38.27,-98.974 39.853,-103.46c0.264,4.222 27.449,192.403 27.449,192.403c63.87,0 98.181,-40.381 116.656,-84.457l89.472,-219.852c-63.079,-0 -96.334,43.02 -113.489,88.944Z" style="fill:#4353ff;"/></svg>